Coordinates
version=1
nRows=24
nColumns=38
inDegrees=no

Units are S.I. units (second, meters, Newtons, ...)
If the header above contains a line with 'inDegrees', this indicates whether rotational values are in degrees (yes) or radians (no).

endheader
time	pelvis_tilt	pelvis_list	pelvis_rotation	pelvis_tx	pelvis_ty	pelvis_tz	hip_flexion_r	hip_adduction_r	hip_rotation_r	knee_angle_r	ankle_angle_r	subtalar_angle_r	mtp_angle_r	hip_flexion_l	hip_adduction_l	hip_rotation_l	knee_angle_l	ankle_angle_l	subtalar_angle_l	mtp_angle_l	lumbar_extension	lumbar_bending	lumbar_rotation	arm_flex_r	arm_add_r	arm_rot_r	elbow_flex_r	pro_sup_r	wrist_flex_r	wrist_dev_r	arm_flex_l	arm_add_l	arm_rot_l	elbow_flex_l	pro_sup_l	wrist_flex_l	wrist_dev_l
40	0.0567497	1.35156	1.50055	0.614245	0.305851	1.00723	0.468497	-0.0619072	-0.0145962	0.459476	-0.34113	0	0	0.311238	-0.091402	-0.309073	0.261901	-0.393545	0	0	-0.626756	-0.0266014	-0.0108435	0.55777	-0.516461	1.4303	0.651513	0.0802651	0	0	0.589834	-0.620185	1.52806	0.744507	0.277167	0	0
40.01	0.0638697	1.35476	1.49318	0.614005	0.307611	1.00878	0.455793	-0.0593664	-0.0136681	0.446903	-0.342187	0	0	0.29861	-0.0898679	-0.309318	0.247448	-0.396822	0	0	-0.611591	-0.0254066	-0.0103309	0.539575	-0.513653	1.42821	0.653996	0.0956571	0	0	0.567274	-0.61713	1.5227	0.747543	0.287814	0	0
40.02	0.069493	1.36115	1.48697	0.613757	0.309382	1.01052	0.439798	-0.0576704	-0.0134361	0.434288	-0.34418	0	0	0.281091	-0.0873907	-0.309642	0.229636	-0.40254	0	0	-0.598522	-0.0246834	-0.00988878	0.528561	-0.51071	1.44746	0.656258	0.0784678	0	0	0.550489	-0.613106	1.53237	0.750093	0.280248	0	0
40.03	0.080153	1.37552	1.47614	0.613295	0.311441	1.01298	0.412783	-0.0565364	-0.0169752	0.416914	-0.353788	0	0	0.252112	-0.0841238	-0.310171	0.205445	-0.422985	0	0	-0.594017	-0.0223282	-0.0118888	0.52623	-0.507674	1.48456	0.65956	0.0516102	0	0	0.532433	-0.609882	1.5368	0.752753	0.277094	0	0
40.04	0.0877101	1.38186	1.47002	0.612771	0.313582	1.01454	0.395591	-0.0561988	-0.0215967	0.402963	-0.356636	0	0	0.234823	-0.0813211	-0.308812	0.188171	-0.430575	0	0	-0.581847	-0.0197988	-0.0131738	0.512792	-0.504604	1.49274	0.660484	0.0575506	0	0	0.512323	-0.605091	1.53436	0.753049	0.283423	0	0
40.05	0.0968545	1.38842	1.46108	0.612345	0.315635	1.01606	0.378726	-0.055247	-0.0259573	0.389588	-0.359638	0	0	0.217619	-0.0793083	-0.308812	0.172033	-0.437401	0	0	-0.570432	-0.0175161	-0.0135197	0.500578	-0.501847	1.50119	0.661403	0.0643496	0	0	0.492921	-0.600154	1.5313	0.753093	0.289507	0	0
40.06	0.107452	1.39531	1.44958	0.612007	0.317606	1.01753	0.362008	-0.0537889	-0.0299854	0.376699	-0.362467	0	0	0.200615	-0.0780007	-0.310508	0.157529	-0.443327	0	0	-0.559921	-0.0157055	-0.0131869	0.489462	-0.499213	1.50937	0.662136	0.0706749	0	0	0.474054	-0.595485	1.52696	0.753341	0.295173	0	0
40.07	0.120412	1.40334	1.43608	0.611627	0.319609	1.01902	0.343756	-0.0523319	-0.0341249	0.363378	-0.36527	0	0	0.182712	-0.0768117	-0.312333	0.14378	-0.449832	0	0	-0.551111	-0.013457	-0.0135312	0.479485	-0.496722	1.5178	0.662944	0.0768054	0	0	0.455461	-0.591049	1.52121	0.753544	0.300761	0	0
40.08	0.136073	1.41327	1.4207	0.611099	0.321778	1.02059	0.322769	-0.0512987	-0.0386067	0.349407	-0.367966	0	0	0.16193	-0.0752274	-0.314174	0.128355	-0.457401	0	0	-0.544662	-0.0107068	-0.0151705	0.470449	-0.49431	1.52656	0.663638	0.0826375	0	0	0.436763	-0.586969	1.51374	0.754007	0.306312	0	0
40.09	0.151431	1.4223	1.40581	0.610545	0.323826	1.02201	0.303418	-0.0507812	-0.0452467	0.336487	-0.370547	0	0	0.142275	-0.0733416	-0.314595	0.112841	-0.464994	0	0	-0.537805	-0.00813415	-0.0175697	0.461954	-0.491711	1.53455	0.663783	0.0873616	0	0	0.41823	-0.583402	1.50495	0.754892	0.311358	0	0
40.1	0.166443	1.43061	1.39127	0.61001	0.325807	1.02329	0.285114	-0.0506483	-0.0536765	0.323902	-0.372957	0	0	0.123633	-0.0713344	-0.313831	0.0975949	-0.472412	0	0	-0.530556	-0.00591381	-0.0205841	0.453866	-0.488963	1.5416	0.663524	0.0910129	0	0	0.399641	-0.580143	1.49456	0.755676	0.315588	0	0
40.11	0.182745	1.43896	1.37547	0.60948	0.327797	1.02448	0.266829	-0.0506751	-0.0628969	0.311602	-0.374995	0	0	0.104985	-0.06927	-0.312176	0.0825596	-0.479719	0	0	-0.523717	-0.00378257	-0.0240231	0.446271	-0.486337	1.54794	0.663126	0.0939271	0	0	0.381227	-0.576678	1.48319	0.755636	0.319526	0	0
40.12	0.195695	1.44526	1.36205	0.608995	0.329819	1.0254	0.251095	-0.0506376	-0.070333	0.299618	-0.376014	0	0	0.0886188	-0.0670282	-0.310919	0.0681968	-0.485588	0	0	-0.514663	-0.00233883	-0.0267296	0.437874	-0.483609	1.55254	0.661773	0.0961127	0	0	0.363188	-0.572128	1.47321	0.753715	0.323153	0	0
40.13	0.197568	1.44713	1.35838	0.608627	0.331735	1.02587	0.242269	-0.0508268	-0.0744847	0.291217	-0.375766	0	0	0.077852	-0.0644902	-0.31091	0.055649	-0.489472	0	0	-0.500697	-0.00202808	-0.028286	0.427999	-0.48063	1.55468	0.659075	0.0971567	0	0	0.345992	-0.566285	1.46684	0.749475	0.325697	0	0
40.14	0.163752	1.4432	1.3884	0.60856	0.332645	1.02556	0.244799	-0.0538767	-0.0702867	0.288883	-0.374648	0	0	0.07666	-0.058853	-0.309639	0.0468576	-0.491744	0	0	-0.478811	-0.00616541	-0.0268752	0.41663	-0.478187	1.55573	0.656684	0.096354	0	0	0.333383	-0.560679	1.46709	0.745437	0.326221	0	0
40.15	0.0917375	1.42189	1.44963	0.609296	0.332056	1.02364	0.273706	-0.0575626	-0.0444207	0.295793	-0.374083	0	0	0.0964544	-0.0503033	-0.304639	0.0396611	-0.497052	0	0	-0.439208	-0.0166415	-0.0209391	0.405386	-0.473589	1.55886	0.6517	0.0932049	0	0	0.320529	-0.55554	1.46693	0.74002	0.32712	0	0
40.16	0.0875018	1.42544	1.4517	0.609305	0.333387	1.02406	0.263913	-0.0580204	-0.0455869	0.287048	-0.375245	0	0	0.0843866	-0.0470532	-0.304599	0.0268104	-0.501906	0	0	-0.426812	-0.0177564	-0.020296	0.396838	-0.471364	1.56073	0.64976	0.0915293	0	0	0.309145	-0.551272	1.46506	0.73713	0.328993	0	0
40.17	0.0954333	1.43379	1.44296	0.609145	0.335166	1.02489	0.246552	-0.0577637	-0.0508892	0.275212	-0.377067	0	0	0.0655507	-0.0445273	-0.304241	0.0117399	-0.507574	0	0	-0.41958	-0.0168433	-0.0206777	0.389285	-0.469814	1.56317	0.648195	0.0895249	0	0	0.297385	-0.546826	1.46062	0.734026	0.331775	0	0
40.18	0.110919	1.44337	1.42761	0.608859	0.337078	1.02578	0.226823	-0.0571043	-0.0578116	0.262137	-0.378942	0	0	0.0460547	-0.0429132	-0.30653	0	-0.511684	0	0	-0.41418	-0.0149192	-0.0222495	0.382376	-0.468495	1.56502	0.646588	0.0878166	0	0	0.28531	-0.542481	1.45412	0.730969	0.335576	0	0
40.19	0.115341	1.44494	1.42313	0.608674	0.338808	1.02588	0.218578	-0.0568505	-0.0624206	0.254942	-0.374453	0	0	0.0378875	-0.0415834	-0.30895	0	-0.509069	0	0	-0.400002	-0.014313	-0.0215801	0.369479	-0.466797	1.55538	0.64246	0.0950308	0	0	0.277506	-0.53725	1.45964	0.726886	0.327486	0	0
40.2	0.12984	1.45103	1.40904	0.608345	0.340516	1.02634	0.204307	-0.0562341	-0.0692593	0.245399	-0.375317	0	0	0.0241174	-0.0405751	-0.31262	0	-0.511121	0	0	-0.392563	-0.0126342	-0.0235125	0.362753	-0.465716	1.55442	0.640685	0.0938281	0	0	0.26746	-0.533926	1.45509	0.72543	0.328387	0	0
40.21	0.144346	1.45696	1.39526	0.607934	0.342233	1.02671	0.189774	-0.0557947	-0.0761344	0.234661	-0.376027	0	0	0.0100254	-0.0392441	-0.315941	0	-0.513232	0	0	-0.38489	-0.0108417	-0.0262079	0.356276	-0.464556	1.55325	0.638344	0.0930963	0	0	0.257344	-0.530389	1.44967	0.723426	0.329932	0	0
40.22	0.162822	1.46356	1.37735	0.607512	0.34396	1.02707	0.174227	-0.0550997	-0.0823171	0.223099	-0.376854	0	0	-0.0044323	-0.0381341	-0.320219	0	-0.515375	0	0	-0.378443	-0.00885027	-0.0290863	0.350688	-0.463448	1.55261	0.635773	0.0927515	0	0	0.247443	-0.526963	1.44279	0.721587	0.332678	0	0
40.23	0.185508	1.47053	1.35495	0.607094	0.345627	1.02745	0.158558	-0.0542096	-0.0872308	0.211937	-0.377895	0	0	-0.0188791	-0.037203	-0.325083	0	-0.517556	0	0	-0.373182	-0.0066483	-0.032204	0.346137	-0.462468	1.55194	0.63313	0.0927106	0	0	0.237716	-0.523738	1.43424	0.719959	0.336721	0	0
